<svg width="25" height="25" viewBox="0 0 25 25" fill="none" xmlns="http://www.w3.org/2000/svg">
<g clip-path="url(#clip0_403_3)">
<path d="M11.0801 4.10059H4.08014C3.54971 4.10059 3.041 4.3113 2.66593 4.68637C2.29085 5.06145 2.08014 5.57015 2.08014 6.10059V20.1006C2.08014 20.631 2.29085 21.1397 2.66593 21.5148C3.041 21.8899 3.54971 22.1006 4.08014 22.1006H18.0801C18.6106 22.1006 19.1193 21.8899 19.4944 21.5148C19.8694 21.1397 20.0801 20.631 20.0801 20.1006V13.1006" stroke="#32373A" stroke-width="2" stroke-linecap="round" stroke-linejoin="round"/>
<path d="M18.5801 2.60057C18.978 2.20274 19.5175 1.97925 20.0801 1.97925C20.6427 1.97925 21.1823 2.20274 21.5801 2.60057C21.978 2.99839 22.2015 3.53796 22.2015 4.10057C22.2015 4.66318 21.978 5.20274 21.5801 5.60057L12.0801 15.1006L8.08014 16.1006L9.08014 12.1006L18.5801 2.60057Z" stroke="#32373A" stroke-width="2" stroke-linecap="round" stroke-linejoin="round"/>
</g>
<defs>
<clipPath id="clip0_403_3">
<rect width="24" height="24" fill="white" transform="translate(0.0801392 0.100586)"/>
</clipPath>
</defs>
</svg>
