<svg width="25" height="25" viewBox="0 0 25 25" fill="none" xmlns="http://www.w3.org/2000/svg">
<path d="M3.08014 6.10059H5.08014H21.0801" stroke="#32373A" stroke-width="2" stroke-linecap="round" stroke-linejoin="round"/>
<path d="M19.0801 6.10059V20.1006C19.0801 20.631 18.8694 21.1397 18.4944 21.5148C18.1193 21.8899 17.6106 22.1006 17.0801 22.1006H7.08014C6.54971 22.1006 6.041 21.8899 5.66593 21.5148C5.29085 21.1397 5.08014 20.631 5.08014 20.1006V6.10059M8.08014 6.10059V4.10059C8.08014 3.57015 8.29085 3.06145 8.66593 2.68637C9.041 2.3113 9.54971 2.10059 10.0801 2.10059H14.0801C14.6106 2.10059 15.1193 2.3113 15.4944 2.68637C15.8694 3.06145 16.0801 3.57015 16.0801 4.10059V6.10059" stroke="#32373A" stroke-width="2" stroke-linecap="round" stroke-linejoin="round"/>
<path d="M10.0801 11.1006V17.1006" stroke="#32373A" stroke-width="2" stroke-linecap="round" stroke-linejoin="round"/>
<path d="M14.0801 11.1006V17.1006" stroke="#32373A" stroke-width="2" stroke-linecap="round" stroke-linejoin="round"/>
</svg>
